<?xml version="1.0" encoding="UTF-8" standalone="no"?>
<!DOCTYPE svg PUBLIC "-//W3C//DTD SVG 1.1//EN" "http://www.w3.org/Graphics/SVG/1.1/DTD/svg11.dtd">
<svg width="100%" height="100%" viewBox="0 0 1131 1413" version="1.1" xmlns="http://www.w3.org/2000/svg" xmlns:xlink="http://www.w3.org/1999/xlink" xml:space="preserve" xmlns:serif="http://www.serif.com/" style="fill-rule:evenodd;clip-rule:evenodd;stroke-linejoin:round;stroke-miterlimit:2;">
    <g transform="matrix(1,0,0,1,-687,-13.5016)">
        <g transform="matrix(56.5271,0,0,56.5271,347.838,-156.259)">
            <g transform="matrix(0.0176906,0,0,0.0176906,-6.15347,2.76433)">
                <g id="FlaskOutline">
                    <path d="M856.581,465.538L856.581,522.065L800.054,522.065L800.054,578.593L743.527,578.593L743.527,691.647L687,691.647L687,1030.81L743.527,1030.81L743.527,1143.86L800.054,1143.86L800.054,1200.39L856.581,1200.39L856.581,1256.92L913.108,1256.92L913.108,1313.44L969.635,1313.44L969.635,1369.97L1082.69,1369.97L1082.69,1426.5L1421.85,1426.5L1421.85,1369.97L1534.91,1369.97L1534.91,1313.44L1591.43,1313.44L1591.43,1256.92L1647.96,1256.92L1647.96,1200.39L1704.49,1200.39L1704.49,1143.86L1761.01,1143.86L1761.01,1030.81L1817.54,1030.81L1817.54,691.647L1761.01,691.647L1761.01,578.593L1704.49,578.593L1704.49,522.065L1647.96,522.065L1647.96,465.538L1591.43,465.538L1591.43,409.011L1534.91,409.011L1534.91,352.484L1421.85,352.484L1421.85,126.556L1478.47,126.556L1478.47,13.558L1421.85,13.558L1421.85,13.502L1308.8,13.502L1308.8,13.558L1195.74,13.558L1195.74,13.502L1082.69,13.502L1082.69,13.558L1026.42,13.558L1026.42,126.556L1082.69,126.556L1082.69,352.484L969.635,352.484L969.635,409.011L913.108,409.011L913.108,465.538L856.581,465.538ZM857,804.964L1704.49,804.964L1704.49,691.647L1647.96,691.647L1647.96,578.593L1591.43,578.593L1591.43,522.065L1534.91,522.065L1534.91,465.538L1421.85,465.538L1421.85,409.011L1308.8,409.011L1308.8,126.556L1195.74,126.556L1195.74,409.011L1082.69,409.011L1082.69,465.538L969.635,465.538L969.635,522.065L913.108,522.065L913.108,578.593L856.581,578.593L856.581,653L857,653L857,804.964Z" style="fill:rgb(14,75,134);"/>
                </g>
            </g>
            <g transform="matrix(0.0176906,0,0,0.0176906,-6.15347,2.76433)">
                <g id="Substance-FG">
                    <path d="M1704.49,1030.81L1704.49,805L1026.16,805L1026.16,748.174L913.108,748.174L913.108,691.647L800.054,691.647L800.054,1030.81L856.581,1030.81L856.581,1143.86L913.108,1143.86L913.108,1200.39L969.635,1200.39L969.635,1256.92L1082.69,1256.92L1082.69,1313.44L1421.85,1313.44L1421.85,1256.92L1534.91,1256.92L1534.91,1200.39L1591.43,1200.39L1591.43,1143.86L1647.96,1143.86L1647.96,1030.81L1704.49,1030.81Z" style="fill:rgb(0,149,233);"/>
                </g>
            </g>
            <g id="Substance-BG">
                <path d="M14,19L16,19L16,20L21,20L21,19L23,19L23,18L24,18L24,17L23,17L23,16L21,16L21,15L16,15L16,16L14,16L14,17L12,17L12,18L14,18L14,19Z" style="fill:rgb(26,107,185);"/>
            </g>
        </g>
    </g>
</svg>
